<svg width="241" height="241" viewBox="0 0 241 241" fill="none" xmlns="http://www.w3.org/2000/svg">
  <rect width="241" height="241" rx="34" fill="#4285F4"/>
  <path d="M120.5 58C92.1 58 69 81.1 69 109.5C69 137.9 92.1 161 120.5 161C148.9 161 172 137.9 172 109.5C172 81.1 148.9 58 120.5 58ZM120.5 148C99.3 148 82 130.7 82 109.5C82 88.3 99.3 71 120.5 71C141.7 71 159 88.3 159 109.5C159 130.7 141.7 148 120.5 148Z" fill="white"/>
  <path d="M120.5 88C107.6 88 97 98.6 97 111.5C97 124.4 107.6 135 120.5 135C133.4 135 144 124.4 144 111.5C144 98.6 133.4 88 120.5 88Z" fill="#FBBC04"/>
  <path d="M120.5 175C95.8 175 74.2 183.8 58 198.5L69.5 210C83.2 198.4 100.8 191 120.5 191C140.2 191 157.8 198.4 171.5 210L183 198.5C166.8 183.8 145.2 175 120.5 175Z" fill="#34A853"/>
</svg>
